<!DOCTYPE svg PUBLIC "-//W3C//DTD SVG 1.1//EN" "http://www.w3.org/Graphics/SVG/1.1/DTD/svg11.dtd">

<!-- Uploaded to: SVG Repo, www.svgrepo.com, Transformed by: SVG Repo Mixer Tools -->
<svg width="800px" height="800px" viewBox="0 0 24 24" xmlns="http://www.w3.org/2000/svg" fill="#000000">

<g id="SVGRepo_bgCarrier" stroke-width="0"/>

<g id="SVGRepo_tracerCarrier" stroke-linecap="round" stroke-linejoin="round"/>

<g id="SVGRepo_iconCarrier"> <path fill="#000000" d="M17.732 2C18.42 2 19 2.58 19 3.268V20.73c0 .69-.58 1.27-1.268 1.27H6.268C5.58 22 5 21.42 5 20.732V3.268C5 2.58 5.58 2 6.268 2h11.464m0-2H6.268C4.47 0 3 1.47 3 3.268V20.73C3 22.53 4.47 24 6.268 24H17.73c1.8 0 3.27-1.47 3.27-3.268V3.268C21 1.47 19.53 0 17.732 0z"/> <circle fill="#000000" cx="8.005" cy="19" r="1"/> <circle fill="#000000" cx="12.005" cy="19" r="1"/> <circle fill="#000000" cx="16.005" cy="19" r="1"/> <circle fill="#000000" cx="8.005" cy="15" r="1"/> <circle fill="#000000" cx="12.005" cy="15" r="1"/> <circle fill="#000000" cx="16.005" cy="15" r="1"/> <circle fill="#000000" cx="8.005" cy="11" r="1"/> <circle fill="#000000" cx="12.005" cy="11" r="1"/> <circle fill="#000000" cx="16.005" cy="11" r="1"/> <path fill="#000000" d="M15.005 8h-6c-1.103 0-2-.897-2-2s.897-2 2-2h6c1.103 0 2 .897 2 2s-.898 2-2 2z"/> </g>

</svg>