<?xml version="1.0" encoding="UTF-8"?>
<svg xmlns="http://www.w3.org/2000/svg" viewBox="0 0 16 16">
	<style>
		path { fill: #000; }
		
		@media (prefers-color-scheme: dark) {
		path { fill: #fff; }
		}
	</style>
	<path d="M4.79,12.64c.4,0,.74-.14,1.01-.42s.42-.62.42-1.02-.14-.74-.42-1.01-.62-.42-1.02-.42-.74.14-1.01.42c-.28.28-.42.62-.42,1.02s.14.74.42,1.01c.28.28.62.42,1.02.42ZM4.79,6.22c.4,0,.74-.14,1.01-.42s.42-.62.42-1.02-.14-.74-.42-1.01-.62-.42-1.02-.42-.74.14-1.01.42c-.28.28-.42.62-.42,1.02s.14.74.42,1.01.62.42,1.02.42ZM8,9.43c.4,0,.74-.14,1.01-.42s.42-.62.42-1.02-.14-.74-.42-1.01-.62-.42-1.02-.42-.74.14-1.01.42-.42.62-.42,1.02.14.74.42,1.01.62.42,1.02.42ZM11.19,12.64c.4,0,.74-.14,1.01-.42s.42-.62.42-1.02-.14-.74-.42-1.01c-.28-.28-.62-.42-1.02-.42s-.74.14-1.01.42-.42.62-.42,1.02.14.74.42,1.01c.28.28.62.42,1.02.42ZM11.21,6.22c.4,0,.74-.14,1.01-.42s.42-.62.42-1.02-.14-.74-.42-1.01c-.28-.28-.62-.42-1.02-.42s-.74.14-1.01.42c-.28.28-.42.62-.42,1.02s.14.74.42,1.01.62.42,1.02.42ZM2.9,15c-.52,0-.97-.19-1.34-.56-.37-.37-.56-.82-.56-1.34V2.9c0-.52.19-.97.56-1.34.37-.37.82-.56,1.34-.56h10.21c.52,0,.97.19,1.34.56.37.37.56.82.56,1.34v10.21c0,.52-.19.97-.56,1.34-.37.37-.82.56-1.34.56H2.9Z" />
</svg>
